<svg width="128" height="128" xmlns="http://www.w3.org/2000/svg">
  <style>
    path { fill: #000000; }
    @media (prefers-color-scheme: dark) {
      path { fill: #ffffff; }
    }
  </style>
  <path d="M64.01 125.92c-8.64 0-16.74-1.62-24.3-4.86-7.44-3.24-14.04-7.68-19.8-13.32-5.76-5.76-10.26-12.42-13.5-19.98-3.24-7.56-4.86-15.66-4.86-24.3s1.62-16.68 4.86-24.12c3.24-7.56 7.68-14.22 13.32-19.98C25.49 13.6 32.15 9.1 39.71 5.86 47.27 2.62 55.37 1 64.01 1c8.52 0 16.56 1.68 24.12 5.04 7.56 3.24 14.219 7.8 19.979 13.68 5.76 5.76 10.26 12.42 13.5 19.98 3.24 7.44 4.86 15.36 4.86 23.76 0 8.64-1.62 16.74-4.86 24.3-3.24 7.56-7.74 14.22-13.5 19.98-5.64 5.64-12.24 10.08-19.8 13.32-7.56 3.24-15.66 4.86-24.3 4.86zm0-12.96c6.96 0 13.44-1.26 19.44-3.78 6-2.64 11.22-6.24 15.66-10.8 4.559-4.56 8.099-9.78 10.619-15.66 2.52-6 3.78-12.42 3.78-19.26 0-6.96-1.32-13.44-3.96-19.44-2.52-6-6.06-11.22-10.62-15.66-4.56-4.56-9.84-8.1-15.84-10.62-5.88-2.52-12.24-3.78-19.08-3.78-6.96 0-13.44 1.32-19.44 3.96-6 2.52-11.28 6.06-15.84 10.62-4.44 4.56-7.92 9.84-10.44 15.84-2.52 5.88-3.78 12.24-3.78 19.08 0 6.96 1.26 13.44 3.78 19.44 2.64 6 6.24 11.28 10.8 15.84 4.56 4.44 9.78 7.92 15.66 10.44 6 2.52 12.42 3.78 19.26 3.78zm-23.4-35.64c-3.72 0-6.96-1.38-9.72-4.14-2.76-2.76-4.14-6-4.14-9.72 0-3.84 1.38-7.08 4.14-9.72 2.76-2.76 6-4.14 9.72-4.14 3.84 0 7.08 1.38 9.72 4.14 2.76 2.64 4.14 5.88 4.14 9.72 0 3.72-1.38 6.96-4.14 9.72-2.64 2.76-5.88 4.14-9.72 4.14zm46.8 0c-3.72 0-6.96-1.32-9.72-3.96-2.76-2.76-4.14-6.06-4.14-9.9 0-3.84 1.38-7.08 4.14-9.72 2.76-2.76 6-4.14 9.72-4.14 3.84 0 7.08 1.38 9.72 4.14 2.76 2.64 4.139 5.88 4.139 9.72 0 3.72-1.38 6.96-4.14 9.72-2.64 2.76-5.88 4.14-9.72 4.14z" />
</svg>
